<svg width="42" height="42" viewBox="0 0 42 42" fill="none" xmlns="http://www.w3.org/2000/svg">
<rect x="0.525" y="0.525" width="40.95" height="40.95" rx="20.475" fill="#F7F7F7"/>
<rect x="0.525" y="0.525" width="40.95" height="40.95" rx="20.475" stroke="#F0F0F0" stroke-width="1.05"/>
<path d="M21 22C24.866 22 28 23.7909 28 26C28 28.2091 24.866 30 21 30C17.134 30 14 28.2091 14 26C14 23.7909 17.134 22 21 22ZM21 12C23.2091 12 25 13.7909 25 16C25 18.2091 23.2091 20 21 20C18.7909 20 17 18.2091 17 16C17 13.7909 18.7909 12 21 12Z" fill="#28303F"/>
</svg>
